<svg xmlns="http://www.w3.org/2000/svg" xmlns:xlink="http://www.w3.org/1999/xlink" x="0" y="0" enable-background="new 0 0 68 68" version="1.1" viewBox="0 0 68 68" xml:space="preserve"><g id="Layer_3" display="none"><g id="Layer_2_copy_3" display="inline"><path d="M68,34C68,15.2,52.8,0,34,0S0,15.2,0,34c0,18.8,15.2,34,34,34v-4C17.4,64,4,50.6,4,34S17.4,4,34,4s30,13.4,30,30 S50.6,64,34,64S4,50.6,4,34S17.4,4,34,4c15.8,0,23.8,11.3,23.8,11.3c1.4,2,2.7,4.1,3.2,6.6c0.4,2.4,0.3,5-1.2,6.9 c-1.1,1.4-2.7,2.3-4.4,2.7C54.3,31.9,53.1,32,52,32H18v4h34c17.7-0.4,12-18,12-18c-0.9-2.7-2.5-5.2-4.3-7.3 c-4.4-5.3-10.6-8.6-17.3-9.9C39.7,0.2,36.8,0,34,0C15.2,0,0,15.2,0,34c0,18.8,15.2,34,34,34S68,52.8,68,34z"/><rect width="16" height="8.8" y="30.7" fill="none"/></g></g><g id="Layer_8" display="none"><path fill="none" stroke="#B3B3B3" stroke-miterlimit="10" stroke-width="4" d="M34,2c12.1,0,18,4,18,4 s7.9,4.3,11,13.8c0,0,2,6.8-3,11.1c0,0-3.2,3.2-8,3.2c-3.9,0,0,0,0,0" display="inline"/></g><g id="Layer_12" display="none"><path fill="none" stroke="red" stroke-miterlimit="10" stroke-width="4" d="M52,34" display="inline"/><path fill="none" stroke="red" stroke-miterlimit="10" stroke-width="4" d="M34,2" display="inline"/></g><g id="Layer_5" display="none"><path fill="none" stroke="red" stroke-miterlimit="10" stroke-width="4" d="M34,66C16.3,66,2,51.7,2,34 S16.3,2,34,2s32,14.3,32,32S51.7,66,34,66S2,51.7,2,34S16.3,2,34,2c22.7,0,29,16.1,29,23.5S52,34,52,34H18" display="inline"/></g><g id="Layer_5_copy_2" display="none"><path fill="none" stroke="red" stroke-miterlimit="10" stroke-width="4" d="M33.9,2" display="inline"/><path fill="none" stroke="red" stroke-miterlimit="10" stroke-width="4" d="M34,2C16.3,2,2,16.3,2,34 s14.3,32,32,32s32-14.3,32-32S51.7,2,34,2" display="inline"/></g><g id="Layer_11"><path fill="none" stroke="red" stroke-miterlimit="10" stroke-width="4" d="M34,2c11.6,0,21.8,6.2,27.4,15.5 c2.9,4.8,5,16.5-9.4,16.5h-4"/></g></svg>